<?xml version="1.0" standalone="no"?>
<!DOCTYPE svg PUBLIC "-//W3C//DTD SVG 20010904//EN"
 "http://www.w3.org/TR/2001/REC-SVG-20010904/DTD/svg10.dtd">
<svg version="1.0" xmlns="http://www.w3.org/2000/svg"
 width="700.000000pt" height="700.000000pt" viewBox="0 0 700.000000 700.000000"
 preserveAspectRatio="xMidYMid meet">
<metadata>
Created by potrace 1.11, written by Peter Selinger 2001-2013
</metadata>
<g transform="translate(0.000000,700.000000) scale(0.100000,-0.100000)"
fill="#000000" stroke="none">
<path d="M200 5765 l0 -1035 1035 0 1035 0 0 1035 0 1035 -1035 0 -1035 0 0
-1035z"/>
<path d="M2470 3500 l0 -1030 1030 0 1030 0 0 1030 0 1030 -1030 0 -1030 0 0
-1030z"/>
<path d="M4730 3500 l0 -1030 1035 0 1035 0 0 1030 0 1030 -1035 0 -1035 0 0
-1030z"/>
<path d="M200 1235 l0 -1035 1035 0 1035 0 0 1035 0 1035 -1035 0 -1035 0 0
-1035z"/>
<path d="M2470 1235 l0 -1035 1030 0 1030 0 0 1035 0 1035 -1030 0 -1030 0 0
-1035z"/>
</g>
</svg>
