<svg xmlns="http://www.w3.org/2000/svg" viewBox="0 0 946.6 137.3">
  <defs>
    <style>
      .cls-1 {
        fill: #fff;
      }
    </style>
  </defs>
  <title>gol</title>
  <g id="Layer_2" data-name="Layer 2">
    <g id="Layer_1-2" data-name="Layer 1">
      <g>
        <path class="cls-1" d="M80,58.4a8.4,8.4,0,0,0-6.3,2.8,8.9,8.9,0,0,0-2.6,6.6,8.8,8.8,0,0,0,2.6,6.4A8.3,8.3,0,0,0,80,76.9a7.3,7.3,0,0,0,3.6-.8,8.4,8.4,0,0,0,3-2.2,7.3,7.3,0,0,0,1.6-3.3,6.9,6.9,0,0,0-.2-4h14.5v54l-2,1.6-3.2,2.7c-1.2.9-2.7,2-4.5,3.5a65.4,65.4,0,0,1-8.3,4.6,51,51,0,0,1-7.8,2.6,71.9,71.9,0,0,1-9,1.3q-4.9.3-11.7.3a57,57,0,0,1-39.6-15,50,50,0,0,1-12-16.4,48.3,48.3,0,0,1,0-40.3,50,50,0,0,1,12-16.4A58.4,58.4,0,0,1,56,33.9a56.1,56.1,0,0,1,20.2,3.6,60.1,60.1,0,0,1,17.5,10L87.1,57.8a6.8,6.8,0,0,1-1.4,2h-.1l-.6-.5-1.4-.2a5.8,5.8,0,0,1-2.1-.7Z"/>
        <path class="cls-1" d="M146.4,60.1c.4-.8.8-.8,1.4,0L190,135.4c.4.8.2,1.3-.6,1.3H106.2c-1,0-1.2-.5-.8-1.3Zm1.1,65.8a5.8,5.8,0,0,0,4.3-1.8,6,6,0,0,0,1.8-4.4,5.7,5.7,0,0,0-1.8-4.3,5.8,5.8,0,0,0-4.3-1.8,6,6,0,0,0-4.4,1.8,5.7,5.7,0,0,0-1.9,4.3,6.1,6.1,0,0,0,1.9,4.4A6,6,0,0,0,147.5,125.9Z"/>
        <path class="cls-1" d="M205.4,136.5a1.3,1.3,0,0,1-1,.4h-8.8a1.2,1.2,0,0,1-1-.4,1.3,1.3,0,0,1-.4-1V61.4a1.2,1.2,0,0,1,.4-1,.9.9,0,0,1,1,0l47.1,9.1h2.7l47.7-9.1a.9.9,0,0,1,1,0,1.2,1.2,0,0,1,.4,1v74.1a1.4,1.4,0,0,1-1.4,1.4h-8.2a1,1,0,0,1-.9-.4,1.3,1.3,0,0,1-.4-1v-8.2c0-.8-.4-1.2-1.4-1.2H207.1c-1,0-1.4.4-1.4,1.2v8.2A1.7,1.7,0,0,1,205.4,136.5Z"/>
        <path class="cls-1" d="M339.3,74.8a2.9,2.9,0,0,0-.8,1.9,2.5,2.5,0,0,0,.8,1.8,2.6,2.6,0,0,0,1.9.9h29.3c1.6,0,2.5.5,2.5,1.6v35a2.1,2.1,0,0,1-.5,1.2,1.3,1.3,0,0,1-1.1.6H341.1a2,2,0,0,0-1.8.9,2.9,2.9,0,0,0-.7,2,3,3,0,0,0,.5,2.1,2.4,2.4,0,0,0,2.1.8h30.1a1.4,1.4,0,0,1,1.1.8,2.4,2.4,0,0,1,.6,1.4v9.3a1.7,1.7,0,0,1-1.6,1.6H302c-1,0-1.5-.5-1.5-1.6V61.6a1.3,1.3,0,0,1,1.5-1.5h69.4a1.4,1.4,0,0,1,1.1.5,1.4,1.4,0,0,1,.5,1V72.4c0,1-.5,1.5-1.3,1.5H341.2A2.6,2.6,0,0,0,339.3,74.8Z"/>
        <path class="cls-1" d="M480,137.3a37.2,37.2,0,0,1-15.2-3.1,39.1,39.1,0,0,1-12.4-8.3,41.2,41.2,0,0,1-8.4-12.4,40,40,0,0,1,0-30.4,42.4,42.4,0,0,1,8.4-12.4,37.8,37.8,0,0,1,12.4-8.4A37.2,37.2,0,0,1,480,59.2a36.4,36.4,0,0,1,15.1,3.1,39.3,39.3,0,0,1,12.5,8.4A42.4,42.4,0,0,1,516,83.1a38.8,38.8,0,0,1,0,30.4,41.2,41.2,0,0,1-8.4,12.4,40.7,40.7,0,0,1-12.5,8.3A36.4,36.4,0,0,1,480,137.3Zm-.4-52.7a6.5,6.5,0,0,0,4.6-1.8,5.9,5.9,0,0,0,1.9-4.4,6,6,0,0,0-1.9-4.6,6.3,6.3,0,0,0-4.6-2,5.9,5.9,0,0,0-4.4,2,6.1,6.1,0,0,0-2,4.6,6.5,6.5,0,0,0,6.4,6.2Z"/>
        <path class="cls-1" d="M594.7,60.1a2.5,2.5,0,0,1,1.6.6,2.2,2.2,0,0,1,.7,1.7v9.2a1.9,1.9,0,0,1-.7,1.6,2.1,2.1,0,0,1-1.6.7H566.9a2.1,2.1,0,0,0-2.3,2.3V78q0,1.1.6,1.2a4.3,4.3,0,0,0,1.7.3h27.8a2.5,2.5,0,0,1,1.6.6,2.2,2.2,0,0,1,.7,1.7v33.6a2,2,0,0,1-.7,1.6,2.6,2.6,0,0,1-1.6.7H566.9a2.5,2.5,0,0,0-1.7.6,2.3,2.3,0,0,0-.6,1.6v14.5a2.3,2.3,0,0,1-.6,1.6,2.2,2.2,0,0,1-1.7.7H526.7a2.2,2.2,0,0,1-1.7-.7,2.3,2.3,0,0,1-.6-1.6v-72a2.1,2.1,0,0,1,2.3-2.3Z"/>
        <path class="cls-1" d="M720.1,118a2.9,2.9,0,0,0,.7,1.8,2.5,2.5,0,0,0,1.8.8h14.6a2.2,2.2,0,0,1,1.8.8,2.8,2.8,0,0,1,.7,1.7v11a2.9,2.9,0,0,1-.7,1.8,2.5,2.5,0,0,1-1.8.8H670a2.7,2.7,0,0,1-2.6-2.6v-97a2.5,2.5,0,0,1,.8-1.7,2.2,2.2,0,0,1,1.8-.8h47.6a2.2,2.2,0,0,1,1.8.8,2.3,2.3,0,0,1,.7,1.7Z"/>
        <path class="cls-1" d="M749,60.1h37.2c1.1,0,1.6.5,1.6,1.5v73.5a1.4,1.4,0,0,1-1.6,1.6H749a1.4,1.4,0,0,1-1.6-1.6V61.6A1.4,1.4,0,0,1,749,60.1Z"/>
        <path class="cls-1" d="M865.7,60.1a2.3,2.3,0,0,1,1.6.6,2.2,2.2,0,0,1,.7,1.7v9.2a1.9,1.9,0,0,1-.7,1.6,2,2,0,0,1-1.6.7H837.9a2.1,2.1,0,0,0-1.6.6,2.2,2.2,0,0,0-.7,1.7V78c0,.7.2,1.1.7,1.2a3.5,3.5,0,0,0,1.6.3h27.8a2.3,2.3,0,0,1,1.6.6,2.2,2.2,0,0,1,.7,1.7v33.6a2,2,0,0,1-.7,1.6,2.4,2.4,0,0,1-1.6.7H837.9a2.1,2.1,0,0,0-1.6.6,2,2,0,0,0-.7,1.6v14.5a2.3,2.3,0,0,1-.6,1.6,2.2,2.2,0,0,1-1.7.7H797.7a1.9,1.9,0,0,1-1.6-.7,2,2,0,0,1-.7-1.6v-72a2.2,2.2,0,0,1,.7-1.7,2.1,2.1,0,0,1,1.6-.6Z"/>
        <path class="cls-1" d="M913,74.8a2.5,2.5,0,0,0-.8,1.9,2.2,2.2,0,0,0,.8,1.8,2.4,2.4,0,0,0,1.8.9h29.4c1.6,0,2.4.5,2.4,1.6v35a1.9,1.9,0,0,1-.4,1.2,1.4,1.4,0,0,1-1.1.6H914.7a2.3,2.3,0,0,0-1.8.9,4.3,4.3,0,0,0-.7,2,3.7,3.7,0,0,0,.6,2.1,2.2,2.2,0,0,0,2,.8H945a1.4,1.4,0,0,1,1.1.8,3,3,0,0,1,.5,1.4v9.3a1.4,1.4,0,0,1-.4,1.1,1.6,1.6,0,0,1-1.1.5H875.7a1.4,1.4,0,0,1-1.6-1.6V61.6a1.4,1.4,0,0,1,1.6-1.5h69.4a1.6,1.6,0,0,1,1.1.5,1.3,1.3,0,0,1,.4,1V72.4c0,1-.4,1.5-1.3,1.5H914.8A2.4,2.4,0,0,0,913,74.8Z"/>
      </g>
      <g>
        <path class="cls-1" d="M120.8,6.4h13.8a.5.5,0,0,1,.6.6V34.3c0,.2,0,.3-.1.4s-.3.2-.5.2c-3.7.2-6.9.3-9.6.2s-4.9-.3-6.6-.5a21.8,21.8,0,0,1-3.9-.8l-2-.7-.6-.4.8-2.4a.5.5,0,0,1,.2-.4h.5l3.9.7,2,.2a1.4,1.4,0,0,0,.9-.2V7A.5.5,0,0,1,120.8,6.4Z"/>
        <path class="cls-1" d="M148.8,35.4a14.5,14.5,0,0,1-4.7-.7,12.3,12.3,0,0,1-3.8-1.9,9.6,9.6,0,0,1-2.6-3.1,9.6,9.6,0,0,1-.9-4.2,10.2,10.2,0,0,1,1-3.8,9.9,9.9,0,0,1,2.6-3.2,11.7,11.7,0,0,1,3.8-2.1,13.6,13.6,0,0,1,9.2,0,11.7,11.7,0,0,1,3.8,2.1,9.9,9.9,0,0,1,2.6,3.2,8.5,8.5,0,0,1,.9,3.8,8.6,8.6,0,0,1-.9,3.9,9.6,9.6,0,0,1-2.6,3.1,14,14,0,0,1-3.8,2.2A13.5,13.5,0,0,1,148.8,35.4Zm-.1-11.5a1.7,1.7,0,0,0,1.8-1.7,2.1,2.1,0,0,0-.5-1.3,2.1,2.1,0,0,0-1.3-.5,1.7,1.7,0,0,0-1.2.5,2.1,2.1,0,0,0-.5,1.3,1.7,1.7,0,0,0,.5,1.2A1.3,1.3,0,0,0,148.7,23.9Z"/>
        <path class="cls-1" d="M177.3,34.5V24.6a1.3,1.3,0,0,0-.4-1,1.7,1.7,0,0,0-1-.3,1.6,1.6,0,0,0-.9.3,1.5,1.5,0,0,0-.4.9v10c0,.2-.1.3-.2.5l-.4.2H163.3c-.4,0-.6-.3-.6-.7h-.1V.7c0-.5.2-.7.7-.7H174l.4.2a4.3,4.3,0,0,1,.1.5V15.9l.2.3a9.3,9.3,0,0,1,3.3.3,5.9,5.9,0,0,1,2.7,1.4,5.5,5.5,0,0,1,1.8,2.6,9.6,9.6,0,0,1,.7,4v10a.9.9,0,0,1-.1.5l-.5.2H178A.6.6,0,0,1,177.3,34.5Z"/>
        <path class="cls-1" d="M185.6,34.4V16.5c0-.4.2-.7.6-.7h14.9a3.3,3.3,0,0,1,2.3.7,3.3,3.3,0,0,1,1.1,1.5,5.3,5.3,0,0,1,.6,2.1V34.6c0,.1-.1.2-.2.3l-.3.2h-4.1l-.4-.2a.4.4,0,0,1-.1-.3V24.3a1.8,1.8,0,0,0-.4-1.1,1.1,1.1,0,0,0-1.8,0,1.8,1.8,0,0,0-.4,1.1V34.4c0,.2,0,.4-.2.5a.5.5,0,0,1-.4.2H186.3C185.8,35.1,185.6,34.9,185.6,34.4Z"/>
        <path class="cls-1" d="M247.5,18.9l.9,1.3,1.9,3.1c.9,1.4,2.2,3.3,3.8,5.9l-2.2,1.9-1.8,1.3-2.3,1.4-2.2.9-2.5.5h-3.5a16.8,16.8,0,0,1-6.3-1.2,17.9,17.9,0,0,1-5.2-3.1,15.3,15.3,0,0,1-3.4-4.6,12.2,12.2,0,0,1-1.3-5.7,11.8,11.8,0,0,1,1.3-5.6,14.1,14.1,0,0,1,3.4-4.6,18.2,18.2,0,0,1,5.2-3.2,19,19,0,0,1,6.3-1.1,19.2,19.2,0,0,1,5.9.9,18.7,18.7,0,0,1,4.8,2.7l-1.8,2.9-.3.4a.2.2,0,0,1-.2.2c-.1.1-.2.1-.5-.1a2.9,2.9,0,0,0-1.4-.3,2.4,2.4,0,0,0-2,.8,2.7,2.7,0,0,0-.9,2,2.9,2.9,0,0,0,.9,2.1,2.4,2.4,0,0,0,2,.8h.7a.4.4,0,0,1,.5,0Z"/>
        <path class="cls-1" d="M267.2,35.4a14.1,14.1,0,0,1-4.7-.7,11.8,11.8,0,0,1-3.9-1.9,10.7,10.7,0,0,1-2.5-3.1,8.4,8.4,0,0,1-.9-4.2,8.6,8.6,0,0,1,1-3.8,11.1,11.1,0,0,1,2.5-3.2,12.8,12.8,0,0,1,3.8-2.1,14.5,14.5,0,0,1,4.7-.8,13.9,13.9,0,0,1,4.6.8,12.8,12.8,0,0,1,3.8,2.1,9.6,9.6,0,0,1,2.5,3.2,7.5,7.5,0,0,1,1,3.8,7.6,7.6,0,0,1-1,3.9,9.3,9.3,0,0,1-2.5,3.1,15.7,15.7,0,0,1-3.8,2.2A13.9,13.9,0,0,1,267.2,35.4Zm-.1-11.5a1.3,1.3,0,0,0,1.2-.5,1.4,1.4,0,0,0,.6-1.2,1.8,1.8,0,0,0-.6-1.3,1.7,1.7,0,0,0-2.9,1.3,1.7,1.7,0,0,0,1.7,1.7Z"/>
        <path class="cls-1" d="M281,34.4V16.5a.7.7,0,0,1,.7-.7h14.9a3.3,3.3,0,0,1,2.3.7,3.3,3.3,0,0,1,1.1,1.5,5.3,5.3,0,0,1,.6,2.1V34.6c0,.1-.1.2-.2.3l-.3.2h-4.1a.5.5,0,0,1-.4-.2c-.1-.1-.2-.2-.2-.3V24.3a1.8,1.8,0,0,0-.3-1.1,1.1,1.1,0,0,0-1.8,0,1.8,1.8,0,0,0-.4,1.1V34.4c0,.2,0,.4-.2.5l-.4.2H281.7C281.2,35.1,281,34.9,281,34.4Z"/>
        <path class="cls-1" d="M313.2,35.4c0,.1,0,.1-.1.2s-.1-.1-.2-.2L302,16.1c-.1-.2,0-.3.2-.3H305a1.3,1.3,0,0,0,.4,1,2.2,2.2,0,0,0,2.2,0,1.9,1.9,0,0,0,.5-1h15.4a1.4,1.4,0,0,0,.5,1,1.7,1.7,0,0,0,1,.3,1.4,1.4,0,0,0,1.1-.4,1.6,1.6,0,0,0,.5-1h3.3c.1.1.1.1,0,.2L319,35.5a.2.2,0,0,1-.4,0l-2.7-5.2Z"/>
        <path class="cls-1" d="M331.1,16.6a.8.8,0,0,1,.2-.5l.5-.2h20.9c.5,0,.7.2.7.7V34.5a.8.8,0,0,1-.2.4c-.1.2-.3.2-.5.2H335.2a5.2,5.2,0,0,1-2.4-.5,5,5,0,0,1-1.9-1.3,5.9,5.9,0,0,1-1.3-1.9,6.9,6.9,0,0,1-.5-2.4V27.9a6.9,6.9,0,0,1,.5-2.4,7.7,7.7,0,0,1,1.4-2.1,5.2,5.2,0,0,1,1.9-1.4,5.9,5.9,0,0,1,2.3-.5h5.9a.6.6,0,0,0,.6-.3,6.4,6.4,0,0,0,.2-.7,1.5,1.5,0,0,0-.4-.6l-.3-.2h-9.4l-.5-.2a.8.8,0,0,1-.2-.5Zm4.4,13a2.2,2.2,0,0,0,1.4-.5,2.1,2.1,0,0,0,.5-1.3,2.2,2.2,0,0,0-.5-1.4,2.2,2.2,0,0,0-1.4-.5,2.1,2.1,0,0,0-1.3.5,2.2,2.2,0,0,0-.5,1.4,1.7,1.7,0,0,0,1.8,1.8Z"/>
        <path class="cls-1" d="M360.1,26.6a1.8,1.8,0,0,0,.4,1,1.4,1.4,0,0,0,.9.5,1.2,1.2,0,0,0,.9-.4,2.1,2.1,0,0,0,.4-1.1V16.5a.6.6,0,0,1,.7-.7H374c.2,0,.3,0,.4.2a4.3,4.3,0,0,1,.1.5V35.3a11.6,11.6,0,0,1-.9,4.9,8.8,8.8,0,0,1-2.3,3.2,11.7,11.7,0,0,1-3.1,1.7,14.3,14.3,0,0,1-3.4.6h-3.1l-2.3-.3-.9-.2,1.4-3.9,2.8-1.8V35a10.6,10.6,0,0,1-3.1-.5,6.5,6.5,0,0,1-2.3-1.3,4.5,4.5,0,0,1-1.4-1.9,5.1,5.1,0,0,1-.5-2.5V16.3c0-.3.1-.5.5-.5h3.7c.4,0,.5.2.5.5Z"/>
        <path class="cls-1" d="M383.7,11.8a6.8,6.8,0,0,1-.4,1.7,6.8,6.8,0,0,1-1.3,1.8,4.6,4.6,0,0,1-2.4,1.3l.5-.7a1,1,0,0,0,.4-.5l.3-.4a6.1,6.1,0,0,0,.5-1.1l-.2-.4h-.7l-.6.3a3.4,3.4,0,0,1-1.2-.4,2.3,2.3,0,0,1-1-.7,2.4,2.4,0,0,1-.6-1.1,2.7,2.7,0,0,1-.3-1.2,3.1,3.1,0,0,1,.3-1.3,4.1,4.1,0,0,1,.7-1.1,3.9,3.9,0,0,1,1-.8,3.1,3.1,0,0,1,1.3-.3h.2a3.1,3.1,0,0,1,2,.4,4.9,4.9,0,0,1,1.1,1.4,8.1,8.1,0,0,1,.5,2.1A5.8,5.8,0,0,1,383.7,11.8Z"/>
        <path class="cls-1" d="M388.1,27.5v-.3a8.4,8.4,0,0,1-.8-3.6,8.8,8.8,0,0,1,.5-2.9,7.2,7.2,0,0,1,1.2-2.1,4.3,4.3,0,0,1,1.2-1.4c.3-.3.5-.4.5-.5a7.2,7.2,0,0,1,2.7-1.5,9.7,9.7,0,0,1,2.9-.2,11.7,11.7,0,0,1,2.7.4l1.9.6.7.3h.1A7.8,7.8,0,0,0,401,18a1.2,1.2,0,0,0-.2.6v.2a13.8,13.8,0,0,1,2.4,1.4l1.5,1.7a16,16,0,0,1,1.1,1.9,8.5,8.5,0,0,1-1,7,12.9,12.9,0,0,1-1.9,2.1l-1.8,1.2-.8.4a10.1,10.1,0,0,1-4.7.9,13.1,13.1,0,0,1-4.1-.6,20.3,20.3,0,0,1-3.3-1.6,7.6,7.6,0,0,1-2.1-1.5c-.5-.4-.8-.6-.8-.7v-.2Zm3.7,2.6a1.7,1.7,0,0,0,1.8-1.8,1.8,1.8,0,0,0-.5-1.2,2.1,2.1,0,0,0-1.3-.5,1.7,1.7,0,0,0-1.2.5,1.5,1.5,0,0,0-.5,1.2,1.7,1.7,0,0,0,1.7,1.8Z"/>
      </g>
    </g>
  </g>
</svg>
