<svg xmlns="http://www.w3.org/2000/svg" viewBox="0 0 946.6 103.4">
  <defs>
    <style>
      .cls-1 {
        fill: #fff;
      }
    </style>
  </defs>
  <title>GoL_googly</title>
  <g id="Layer_2" data-name="Layer 2">
    <g id="Layer_1-2" data-name="Layer 1">
      <g>
        <path class="cls-1" d="M80,24.5a8.3,8.3,0,0,0-6.3,2.7,9.2,9.2,0,0,0-2.6,6.6,9,9,0,0,0,2.6,6.5A8.3,8.3,0,0,0,80,43a8.6,8.6,0,0,0,6.6-3.1,7.4,7.4,0,0,0,1.6-3.2,6.9,6.9,0,0,0-.2-4h14.5V86.6l-2,1.7-3.2,2.6-4.5,3.5A54.9,54.9,0,0,1,84.5,99a42,42,0,0,1-7.8,2.6,47.5,47.5,0,0,1-9,1.3q-4.9.3-11.7.3a56.6,56.6,0,0,1-21.8-3.9,55,55,0,0,1-17.8-11,51.5,51.5,0,0,1-12-16.5,48.3,48.3,0,0,1,0-40.3,51.1,51.1,0,0,1,12-16.4A59,59,0,0,1,56,0,58.3,58.3,0,0,1,76.2,3.5a62.4,62.4,0,0,1,17.5,10L87.1,23.9a8.8,8.8,0,0,1-1.4,2h-.1l-.6-.5-1.4-.2a8.6,8.6,0,0,1-2.1-.7Z"/>
        <path class="cls-1" d="M146.4,26.2c.4-.8.8-.8,1.4,0L190,101.4c.4.9.2,1.3-.6,1.3H106.2c-1,0-1.2-.4-.8-1.3ZM147.5,92a5.6,5.6,0,0,0,4.3-1.9,6,6,0,0,0,1.8-4.4,6.1,6.1,0,0,0-6.1-6.1,6,6,0,0,0-4.4,1.8,5.9,5.9,0,0,0-1.9,4.3,6.1,6.1,0,0,0,1.9,4.4A5.8,5.8,0,0,0,147.5,92Z"/>
        <path class="cls-1" d="M205.4,102.5a1.4,1.4,0,0,1-1,.5h-8.8a1.6,1.6,0,0,1-1.4-1.4V27.4a1,1,0,0,1,.4-.9.9.9,0,0,1,1-.1l47.1,9.2h2.7l47.7-9.2a.9.9,0,0,1,1,.1,1,1,0,0,1,.4.9v74.2a1.2,1.2,0,0,1-.4.9,1.4,1.4,0,0,1-1,.5h-8.2a1.1,1.1,0,0,1-.9-.5,1.2,1.2,0,0,1-.4-.9V93.4c0-.9-.4-1.3-1.4-1.3H207.1c-1,0-1.4.4-1.4,1.3v8.2A1.6,1.6,0,0,1,205.4,102.5Z"/>
        <path class="cls-1" d="M339.3,40.8a3.1,3.1,0,0,0-.8,1.9,2.7,2.7,0,0,0,2.7,2.7h29.3c1.6,0,2.5.6,2.5,1.7V82a2.1,2.1,0,0,1-.5,1.3,1.4,1.4,0,0,1-1.1.5H341.1a2,2,0,0,0-1.8.9,3.1,3.1,0,0,0-.7,2.1,2.9,2.9,0,0,0,.5,2,2.5,2.5,0,0,0,2.1.9h30.1a1.4,1.4,0,0,1,1.1.8,2.2,2.2,0,0,1,.6,1.4v9.3a1.6,1.6,0,0,1-.5,1.1,1.4,1.4,0,0,1-1.1.4H302a1.3,1.3,0,0,1-1.5-1.5V27.7a1.3,1.3,0,0,1,1.5-1.5h69.4a1.4,1.4,0,0,1,1.1.4,1.6,1.6,0,0,1,.5,1.1V38.4c0,1-.5,1.5-1.3,1.5H341.2A2.6,2.6,0,0,0,339.3,40.8Z"/>
        <path class="cls-1" d="M480,103.4a39,39,0,0,1-15.2-3.1,39.4,39.4,0,0,1-12.4-8.4A40.7,40.7,0,0,1,444,79.6a39,39,0,0,1-3-15.3,38,38,0,0,1,3-15.1,42.9,42.9,0,0,1,8.4-12.5,41.2,41.2,0,0,1,12.4-8.4,38.9,38.9,0,0,1,15.2-3,38,38,0,0,1,15.1,3,42.9,42.9,0,0,1,12.5,8.4A42.9,42.9,0,0,1,516,49.2a38.1,38.1,0,0,1,3.1,15.1A39.1,39.1,0,0,1,516,79.6a39.7,39.7,0,0,1-20.9,20.7A38.1,38.1,0,0,1,480,103.4Zm-.4-52.7a6.6,6.6,0,0,0,4.6-1.9,5.8,5.8,0,0,0,1.9-4.4,6.5,6.5,0,0,0-6.5-6.5,5.8,5.8,0,0,0-4.4,1.9,6.3,6.3,0,0,0-2,4.6,5.9,5.9,0,0,0,2,4.4A6.1,6.1,0,0,0,479.6,50.7Z"/>
        <path class="cls-1" d="M594.7,26.2a2.5,2.5,0,0,1,1.6.6,2.1,2.1,0,0,1,.7,1.7v9.1a2.1,2.1,0,0,1-.7,1.7,2.5,2.5,0,0,1-1.6.6H566.9a2.6,2.6,0,0,0-1.7.7,2.3,2.3,0,0,0-.6,1.6V44c0,.7.2,1.1.6,1.3a4.3,4.3,0,0,0,1.7.3h27.8a2.5,2.5,0,0,1,1.6.6,2,2,0,0,1,.7,1.6V81.4a2.2,2.2,0,0,1-.7,1.7,2.5,2.5,0,0,1-1.6.6H566.9a2.1,2.1,0,0,0-2.3,2.3v14.4a2.4,2.4,0,0,1-.6,1.7,2.5,2.5,0,0,1-1.7.6H526.7a2.5,2.5,0,0,1-1.7-.6,2.4,2.4,0,0,1-.6-1.7V28.5a2.4,2.4,0,0,1,.6-1.7,2.5,2.5,0,0,1,1.7-.6Z"/>
        <path class="cls-1" d="M720.1,84.1a2.9,2.9,0,0,0,.7,1.8,2.4,2.4,0,0,0,1.8.7h14.6a2.5,2.5,0,0,1,1.8.8,2.9,2.9,0,0,1,.7,1.8v11a2.8,2.8,0,0,1-.7,1.7,2.2,2.2,0,0,1-1.8.8H670a2.2,2.2,0,0,1-1.8-.8,2.5,2.5,0,0,1-.8-1.7V3.2a2.5,2.5,0,0,1,.8-1.8A2.5,2.5,0,0,1,670,.6h47.6a2.5,2.5,0,0,1,1.8.8,2.4,2.4,0,0,1,.7,1.8Z"/>
        <path class="cls-1" d="M749,26.2h37.2c1.1,0,1.6.5,1.6,1.5v73.5c0,1-.5,1.5-1.6,1.5H749a1.4,1.4,0,0,1-1.6-1.5V27.7A1.4,1.4,0,0,1,749,26.2Z"/>
        <path class="cls-1" d="M865.7,26.2a2.3,2.3,0,0,1,1.6.6,2.1,2.1,0,0,1,.7,1.7v9.1a2.1,2.1,0,0,1-.7,1.7,2.3,2.3,0,0,1-1.6.6H837.9a2.2,2.2,0,0,0-1.6.7,2,2,0,0,0-.7,1.6V44c0,.7.2,1.1.7,1.3a3.5,3.5,0,0,0,1.6.3h27.8a2.3,2.3,0,0,1,1.6.6,2,2,0,0,1,.7,1.6V81.4a2.2,2.2,0,0,1-.7,1.7,2.3,2.3,0,0,1-1.6.6H837.9a2.1,2.1,0,0,0-1.6.6,2.2,2.2,0,0,0-.7,1.7v14.4a2.4,2.4,0,0,1-.6,1.7,2.5,2.5,0,0,1-1.7.6H797.7a2.1,2.1,0,0,1-1.6-.6,2.1,2.1,0,0,1-.7-1.7V28.5a2.1,2.1,0,0,1,.7-1.7,2.1,2.1,0,0,1,1.6-.6Z"/>
        <path class="cls-1" d="M913,40.8a2.6,2.6,0,0,0-.8,1.9,2.5,2.5,0,0,0,.8,1.9,2.7,2.7,0,0,0,1.8.8h29.4c1.6,0,2.4.6,2.4,1.7V82a2,2,0,0,1-.4,1.3,1.6,1.6,0,0,1-1.1.5H914.7a2.3,2.3,0,0,0-1.8.9,4.8,4.8,0,0,0-.7,2.1,3.6,3.6,0,0,0,.6,2,2.3,2.3,0,0,0,2,.9H945a1.4,1.4,0,0,1,1.1.8,2.7,2.7,0,0,1,.5,1.4v9.3a1.4,1.4,0,0,1-1.5,1.5H875.7a1.4,1.4,0,0,1-1.6-1.5V27.7a1.4,1.4,0,0,1,1.6-1.5h69.4a1.4,1.4,0,0,1,1.5,1.5V38.4c0,1-.4,1.5-1.3,1.5H914.8A2.4,2.4,0,0,0,913,40.8Z"/>
      </g>
    </g>
  </g>
</svg>
